General

Complete name                    : The.Incredible.Hulk{2008}DVDrip.aaaevilacharya.m4v
Format                           : MPEG-4
Format profile                   : Base Media / Version 2
Codec ID                         : mp42
File size                        : 299 MiB
Duration                         : 1h 47mn
Overall bit rate                 : 388 Kbps



Video
ID                               : 1
Format                           : AVC
Format/Info                      : Advanced Video Codec
Format profile                   : Baseline@L3.0
Format settings, CABAC           : No
Format settings, ReFrames        : 1 frame
Codec ID                         : avc1
Codec ID/Info                    : Advanced Video Coding
Duration                         : 1h 47mn
Bit rate mode                    : Variable
Bit rate                         : 276 Kbps
Width                            : 496 pixels
Height                           : 208 pixels
Display aspect ratio             : 2.35:1
Frame rate mode                  : Constant
Frame rate                       : 25.000 fps
Color space                      : YUV
Chroma subsampling               : 4:2:0
Bit depth                        : 8 bits
Scan type                        : Progressive
Bits/(Pixel*Frame)               : 0.107
Stream size                      : 212 MiB (71%)
Writing library                  : x264 core 79


Audio
ID                               : 2
Format                           : AAC
Format/Info                      : Advanced Audio Codec
Format version                   : Version 4
Format profile                   : LC
Format settings, SBR             : No
Codec ID                         : 40
Duration                         : 1h 47mn
Bit rate mode                    : Variable
Bit rate                         : 110 Kbps
Maximum bit rate                 : 200 Kbps
Channel(s)                       : 2 channels
Channel positions                : Front: L R
Sampling rate                    : 44.1 KHz
Stream size                      : 84.9 MiB (28%)
Encoded date                     : UTC 2011-01-03 18:19:19
Tagged date                      : UTC 2011-01-03 19:20:59

SCREENSHOTS
 
http://img405.imageshack.us/img405/9556/theincrediblehulk2008fr.jpg 
http://img20.imageshack.us/img20/5507/theincrediblehulk2008dv.jpg 
http://img820.imageshack.us/img820/5507/theincrediblehulk2008dv.jpg 
http://img833.imageshack.us/img833/5507/theincrediblehulk2008dv.jpg 
http://img145.imageshack.us/img145/5507/theincrediblehulk2008dv.jpg 
http://img602.imageshack.us/img602/5507/theincrediblehulk2008dv.jpg 
http://img826.imageshack.us/img826/7238/theincrediblehulk2008dvj.jpg 
http://img815.imageshack.us/img815/5507/theincrediblehulk2008dv.jpg 
http://img252.imageshack.us/img252/5507/theincrediblehulk2008dv.jpg 
http://img829.imageshack.us/img829/5507/theincrediblehulk2008dv.jpg
